<mxfile host="app.diagrams.net" modified="2023-03-31T08:18:19.471Z" agent="Mozilla/5.0 (Macintosh; Intel Mac OS X 10_15_7) AppleWebKit/605.1.15 (KHTML, like Gecko) Version/16.2 Safari/605.1.15" etag="_il367wobxceBq5LMXsi" version="21.1.2" type="github">
  <diagram name="Page-1" id="GfTcdCsTiwDE9RxUzX4j">
    <mxGraphModel dx="2074" dy="1187" grid="1" gridSize="10" guides="1" tooltips="1" connect="1" arrows="1" fold="1" page="1" pageScale="1" pageWidth="827" pageHeight="1169" math="0" shadow="0">
      <root>
        <mxCell id="0" />
        <mxCell id="1" parent="0" />
        <mxCell id="bqbvmw0OYoMIhF3BYVu5-3" style="edgeStyle=orthogonalEdgeStyle;rounded=0;orthogonalLoop=1;jettySize=auto;html=1;exitX=0.5;exitY=1;exitDx=0;exitDy=0;" parent="1" source="bqbvmw0OYoMIhF3BYVu5-1" edge="1">
          <mxGeometry relative="1" as="geometry">
            <mxPoint x="374" y="210" as="targetPoint" />
          </mxGeometry>
        </mxCell>
        <mxCell id="bqbvmw0OYoMIhF3BYVu5-1" value="1" style="ellipse;whiteSpace=wrap;html=1;aspect=fixed;" parent="1" vertex="1">
          <mxGeometry x="334" y="60" width="80" height="80" as="geometry" />
        </mxCell>
        <mxCell id="eXsncHztFrUeDRk8Pf4m-1" style="edgeStyle=orthogonalEdgeStyle;rounded=0;orthogonalLoop=1;jettySize=auto;html=1;" edge="1" parent="1" source="bqbvmw0OYoMIhF3BYVu5-4">
          <mxGeometry relative="1" as="geometry">
            <mxPoint x="374" y="400" as="targetPoint" />
          </mxGeometry>
        </mxCell>
        <mxCell id="bqbvmw0OYoMIhF3BYVu5-4" value="2" style="ellipse;whiteSpace=wrap;html=1;aspect=fixed;" parent="1" vertex="1">
          <mxGeometry x="334" y="210" width="80" height="80" as="geometry" />
        </mxCell>
        <mxCell id="eXsncHztFrUeDRk8Pf4m-3" style="rounded=0;orthogonalLoop=1;jettySize=auto;html=1;exitX=0.5;exitY=1;exitDx=0;exitDy=0;entryX=0.238;entryY=0.063;entryDx=0;entryDy=0;entryPerimeter=0;" edge="1" parent="1" source="eXsncHztFrUeDRk8Pf4m-2" target="eXsncHztFrUeDRk8Pf4m-4">
          <mxGeometry relative="1" as="geometry">
            <mxPoint x="430" y="550" as="targetPoint" />
          </mxGeometry>
        </mxCell>
        <mxCell id="eXsncHztFrUeDRk8Pf4m-6" style="rounded=0;orthogonalLoop=1;jettySize=auto;html=1;exitX=0.5;exitY=1;exitDx=0;exitDy=0;entryX=0.638;entryY=0.013;entryDx=0;entryDy=0;entryPerimeter=0;" edge="1" parent="1" source="eXsncHztFrUeDRk8Pf4m-2" target="eXsncHztFrUeDRk8Pf4m-7">
          <mxGeometry relative="1" as="geometry">
            <mxPoint x="270" y="550" as="targetPoint" />
          </mxGeometry>
        </mxCell>
        <mxCell id="eXsncHztFrUeDRk8Pf4m-2" value="3" style="ellipse;whiteSpace=wrap;html=1;aspect=fixed;" vertex="1" parent="1">
          <mxGeometry x="334" y="400" width="80" height="80" as="geometry" />
        </mxCell>
        <mxCell id="eXsncHztFrUeDRk8Pf4m-8" style="rounded=0;orthogonalLoop=1;jettySize=auto;html=1;exitX=0.5;exitY=1;exitDx=0;exitDy=0;entryX=0.875;entryY=0.25;entryDx=0;entryDy=0;entryPerimeter=0;" edge="1" parent="1" source="eXsncHztFrUeDRk8Pf4m-4" target="eXsncHztFrUeDRk8Pf4m-7">
          <mxGeometry relative="1" as="geometry" />
        </mxCell>
        <mxCell id="eXsncHztFrUeDRk8Pf4m-9" style="rounded=0;orthogonalLoop=1;jettySize=auto;html=1;exitX=0.5;exitY=1;exitDx=0;exitDy=0;" edge="1" parent="1" source="eXsncHztFrUeDRk8Pf4m-4">
          <mxGeometry relative="1" as="geometry">
            <mxPoint x="610" y="790" as="targetPoint" />
          </mxGeometry>
        </mxCell>
        <mxCell id="eXsncHztFrUeDRk8Pf4m-4" value="4" style="ellipse;whiteSpace=wrap;html=1;aspect=fixed;" vertex="1" parent="1">
          <mxGeometry x="470" y="670" width="80" height="80" as="geometry" />
        </mxCell>
        <mxCell id="eXsncHztFrUeDRk8Pf4m-12" style="edgeStyle=orthogonalEdgeStyle;rounded=0;orthogonalLoop=1;jettySize=auto;html=1;exitX=0.5;exitY=1;exitDx=0;exitDy=0;" edge="1" parent="1" source="eXsncHztFrUeDRk8Pf4m-7">
          <mxGeometry relative="1" as="geometry">
            <mxPoint x="250" y="1060" as="targetPoint" />
          </mxGeometry>
        </mxCell>
        <mxCell id="eXsncHztFrUeDRk8Pf4m-13" style="edgeStyle=orthogonalEdgeStyle;rounded=0;orthogonalLoop=1;jettySize=auto;html=1;exitX=0.5;exitY=1;exitDx=0;exitDy=0;" edge="1" parent="1" source="eXsncHztFrUeDRk8Pf4m-7">
          <mxGeometry relative="1" as="geometry">
            <mxPoint x="40" y="1060" as="targetPoint" />
          </mxGeometry>
        </mxCell>
        <mxCell id="eXsncHztFrUeDRk8Pf4m-7" value="6" style="ellipse;whiteSpace=wrap;html=1;aspect=fixed;" vertex="1" parent="1">
          <mxGeometry x="100" y="890" width="80" height="80" as="geometry" />
        </mxCell>
        <mxCell id="eXsncHztFrUeDRk8Pf4m-11" style="edgeStyle=orthogonalEdgeStyle;orthogonalLoop=1;jettySize=auto;html=1;exitX=1;exitY=0.5;exitDx=0;exitDy=0;entryX=1;entryY=0.5;entryDx=0;entryDy=0;curved=1;" edge="1" parent="1" source="eXsncHztFrUeDRk8Pf4m-10" target="eXsncHztFrUeDRk8Pf4m-2">
          <mxGeometry relative="1" as="geometry" />
        </mxCell>
        <mxCell id="eXsncHztFrUeDRk8Pf4m-10" value="5" style="ellipse;whiteSpace=wrap;html=1;aspect=fixed;" vertex="1" parent="1">
          <mxGeometry x="570" y="790" width="80" height="80" as="geometry" />
        </mxCell>
        <mxCell id="eXsncHztFrUeDRk8Pf4m-16" style="edgeStyle=orthogonalEdgeStyle;rounded=0;orthogonalLoop=1;jettySize=auto;html=1;exitX=0.5;exitY=1;exitDx=0;exitDy=0;entryX=0.725;entryY=0.05;entryDx=0;entryDy=0;entryPerimeter=0;" edge="1" parent="1" source="eXsncHztFrUeDRk8Pf4m-14" target="eXsncHztFrUeDRk8Pf4m-17">
          <mxGeometry relative="1" as="geometry">
            <mxPoint x="250" y="1220" as="targetPoint" />
          </mxGeometry>
        </mxCell>
        <mxCell id="eXsncHztFrUeDRk8Pf4m-19" style="edgeStyle=orthogonalEdgeStyle;rounded=0;orthogonalLoop=1;jettySize=auto;html=1;exitX=0.5;exitY=1;exitDx=0;exitDy=0;" edge="1" parent="1" source="eXsncHztFrUeDRk8Pf4m-14" target="eXsncHztFrUeDRk8Pf4m-18">
          <mxGeometry relative="1" as="geometry" />
        </mxCell>
        <mxCell id="eXsncHztFrUeDRk8Pf4m-14" value="8" style="ellipse;whiteSpace=wrap;html=1;aspect=fixed;" vertex="1" parent="1">
          <mxGeometry x="210" y="1060" width="80" height="80" as="geometry" />
        </mxCell>
        <mxCell id="eXsncHztFrUeDRk8Pf4m-15" value="7" style="ellipse;whiteSpace=wrap;html=1;aspect=fixed;" vertex="1" parent="1">
          <mxGeometry y="1060" width="80" height="80" as="geometry" />
        </mxCell>
        <mxCell id="eXsncHztFrUeDRk8Pf4m-21" style="edgeStyle=orthogonalEdgeStyle;orthogonalLoop=1;jettySize=auto;html=1;exitX=0.5;exitY=1;exitDx=0;exitDy=0;curved=1;" edge="1" parent="1" source="eXsncHztFrUeDRk8Pf4m-17">
          <mxGeometry relative="1" as="geometry">
            <mxPoint x="420" y="250" as="targetPoint" />
            <Array as="points">
              <mxPoint x="190" y="1310" />
              <mxPoint x="770" y="1310" />
              <mxPoint x="770" y="250" />
            </Array>
          </mxGeometry>
        </mxCell>
        <mxCell id="eXsncHztFrUeDRk8Pf4m-17" value="9" style="ellipse;whiteSpace=wrap;html=1;aspect=fixed;" vertex="1" parent="1">
          <mxGeometry x="150" y="1210" width="80" height="80" as="geometry" />
        </mxCell>
        <mxCell id="eXsncHztFrUeDRk8Pf4m-20" style="edgeStyle=orthogonalEdgeStyle;orthogonalLoop=1;jettySize=auto;html=1;exitX=1;exitY=0.5;exitDx=0;exitDy=0;entryX=1;entryY=0.5;entryDx=0;entryDy=0;curved=1;" edge="1" parent="1" source="eXsncHztFrUeDRk8Pf4m-18" target="eXsncHztFrUeDRk8Pf4m-14">
          <mxGeometry relative="1" as="geometry" />
        </mxCell>
        <mxCell id="eXsncHztFrUeDRk8Pf4m-18" value="10" style="ellipse;whiteSpace=wrap;html=1;aspect=fixed;" vertex="1" parent="1">
          <mxGeometry x="300" y="1210" width="80" height="80" as="geometry" />
        </mxCell>
      </root>
    </mxGraphModel>
  </diagram>
</mxfile>
